<svg width="765" height="487" viewBox="0 0 765 487" fill="none" xmlns="http://www.w3.org/2000/svg">
<g filter="url(#filter0_ii_4413_6290)">
<rect width="765" height="487" fill="url(#paint0_linear_4413_6290)"/>
<rect width="765" height="487" fill="url(#paint1_radial_4413_6290)" fill-opacity="0.3"/>
<rect x="0.5" y="0.5" width="764" height="486" stroke="url(#paint2_linear_4413_6290)" style="mix-blend-mode:overlay"/>
<g filter="url(#filter1_i_4413_6290)">
<rect x="323" y="183" width="120" height="120" rx="30" fill="white"/>
<rect x="323.5" y="183.5" width="119" height="119" rx="29.5" stroke="#171717" stroke-opacity="0.12"/>
<mask id="mask0_4413_6290" style="mask-type:alpha" maskUnits="userSpaceOnUse" x="345" y="206" width="76" height="74">
<rect x="345.5" y="206.5" width="75" height="73" rx="20" fill="white"/>
</mask>
<g mask="url(#mask0_4413_6290)">
<g filter="url(#filter2_ii_4413_6290)">
<path fill-rule="evenodd" clip-rule="evenodd" d="M405.773 342.912C404.668 342.912 403.773 342.016 403.773 340.912L403.773 334.603L403.773 225.265C403.773 224.16 402.877 223.265 401.773 223.265L289.061 223.265L282.5 223.265C281.395 223.265 280.5 222.369 280.5 221.265L280.5 208.647C280.5 207.542 281.395 206.647 282.5 206.647L289.061 206.647L412.333 206.647C417.061 206.647 420.894 210.367 420.894 214.956L420.894 334.603L420.894 340.912C420.894 342.016 419.999 342.912 418.894 342.912L405.773 342.912ZM360.682 143.5C361.786 143.5 362.682 144.395 362.682 145.5L362.682 151.809L362.682 261.147C362.682 262.252 363.577 263.147 364.682 263.147L477.394 263.147L483.955 263.147C485.059 263.147 485.955 264.043 485.955 265.147L485.955 277.765C485.955 278.869 485.059 279.765 483.955 279.765L477.394 279.765L354.121 279.765C349.393 279.765 345.561 276.045 345.561 271.456L345.561 151.809L345.561 145.5C345.561 144.395 346.456 143.5 347.561 143.5L360.682 143.5Z" fill="url(#paint3_linear_4413_6290)"/>
</g>
</g>
</g>
</g>
<defs>
<filter id="filter0_ii_4413_6290" x="0" y="-1" width="765" height="489" filterUnits="userSpaceOnUse" color-interpolation-filters="sRGB">
<feFlood flood-opacity="0" result="BackgroundImageFix"/>
<feBlend mode="normal" in="SourceGraphic" in2="BackgroundImageFix" result="shape"/>
<feColorMatrix in="SourceAlpha" type="matrix" values="0 0 0 0 0 0 0 0 0 0 0 0 0 0 0 0 0 0 127 0" result="hardAlpha"/>
<feOffset dy="-2"/>
<feGaussianBlur stdDeviation="0.5"/>
<feComposite in2="hardAlpha" operator="arithmetic" k2="-1" k3="1"/>
<feColorMatrix type="matrix" values="0 0 0 0 0 0 0 0 0 0 0 0 0 0 0 0 0 0 0.1 0"/>
<feBlend mode="normal" in2="shape" result="effect1_innerShadow_4413_6290"/>
<feColorMatrix in="SourceAlpha" type="matrix" values="0 0 0 0 0 0 0 0 0 0 0 0 0 0 0 0 0 0 127 0" result="hardAlpha"/>
<feOffset dy="2"/>
<feGaussianBlur stdDeviation="0.5"/>
<feComposite in2="hardAlpha" operator="arithmetic" k2="-1" k3="1"/>
<feColorMatrix type="matrix" values="0 0 0 0 1 0 0 0 0 1 0 0 0 0 1 0 0 0 0.06 0"/>
<feBlend mode="normal" in2="effect1_innerShadow_4413_6290" result="effect2_innerShadow_4413_6290"/>
</filter>
<filter id="filter1_i_4413_6290" x="323" y="181" width="120" height="122" filterUnits="userSpaceOnUse" color-interpolation-filters="sRGB">
<feFlood flood-opacity="0" result="BackgroundImageFix"/>
<feBlend mode="normal" in="SourceGraphic" in2="BackgroundImageFix" result="shape"/>
<feColorMatrix in="SourceAlpha" type="matrix" values="0 0 0 0 0 0 0 0 0 0 0 0 0 0 0 0 0 0 127 0" result="hardAlpha"/>
<feOffset dy="-2"/>
<feGaussianBlur stdDeviation="1"/>
<feComposite in2="hardAlpha" operator="arithmetic" k2="-1" k3="1"/>
<feColorMatrix type="matrix" values="0 0 0 0 0.0901961 0 0 0 0 0.0901961 0 0 0 0 0.0901961 0 0 0 0.25 0"/>
<feBlend mode="normal" in2="shape" result="effect1_innerShadow_4413_6290"/>
</filter>
<filter id="filter2_ii_4413_6290" x="280.5" y="143.5" width="205.453" height="203.412" filterUnits="userSpaceOnUse" color-interpolation-filters="sRGB">
<feFlood flood-opacity="0" result="BackgroundImageFix"/>
<feBlend mode="normal" in="SourceGraphic" in2="BackgroundImageFix" result="shape"/>
<feColorMatrix in="SourceAlpha" type="matrix" values="0 0 0 0 0 0 0 0 0 0 0 0 0 0 0 0 0 0 127 0" result="hardAlpha"/>
<feOffset dy="0.25"/>
<feGaussianBlur stdDeviation="0.4"/>
<feComposite in2="hardAlpha" operator="arithmetic" k2="-1" k3="1"/>
<feColorMatrix type="matrix" values="0 0 0 0 1 0 0 0 0 1 0 0 0 0 1 0 0 0 0.25 0"/>
<feBlend mode="normal" in2="shape" result="effect1_innerShadow_4413_6290"/>
<feColorMatrix in="SourceAlpha" type="matrix" values="0 0 0 0 0 0 0 0 0 0 0 0 0 0 0 0 0 0 127 0" result="hardAlpha"/>
<feOffset dy="4"/>
<feGaussianBlur stdDeviation="2"/>
<feComposite in2="hardAlpha" operator="arithmetic" k2="-1" k3="1"/>
<feColorMatrix type="matrix" values="0 0 0 0 0 0 0 0 0 0 0 0 0 0 0 0 0 0 0.25 0"/>
<feBlend mode="normal" in2="effect1_innerShadow_4413_6290" result="effect2_innerShadow_4413_6290"/>
</filter>
<linearGradient id="paint0_linear_4413_6290" x1="382.5" y1="0" x2="382.5" y2="487" gradientUnits="userSpaceOnUse">
<stop stop-color="white"/>
<stop offset="1" stop-color="#F4F3F1"/>
</linearGradient>
<radialGradient id="paint1_radial_4413_6290" cx="0" cy="0" r="1" gradientUnits="userSpaceOnUse" gradientTransform="translate(395.585 2.1309e-05) rotate(93.5696) scale(210.173 1152.16)">
<stop stop-color="#F4F3F1"/>
<stop offset="1" stop-color="#191919" stop-opacity="0"/>
</radialGradient>
<linearGradient id="paint2_linear_4413_6290" x1="363.658" y1="-26.9097" x2="347.807" y2="398.531" gradientUnits="userSpaceOnUse">
<stop stop-color="white"/>
<stop offset="0.72903" stop-color="white" stop-opacity="0.2"/>
</linearGradient>
<linearGradient id="paint3_linear_4413_6290" x1="360.289" y1="146.847" x2="406.437" y2="293.153" gradientUnits="userSpaceOnUse">
<stop stop-color="#9C9C9C"/>
<stop offset="1" stop-color="#171717"/>
</linearGradient>
</defs>
</svg>
