<svg width="75" height="73" viewBox="0 0 75 73" fill="none" xmlns="http://www.w3.org/2000/svg">
<mask id="mask0_4651_26" style="mask-type:alpha" maskUnits="userSpaceOnUse" x="0" y="0" width="75" height="73">
<rect width="75" height="73" rx="20" fill="white"/>
</mask>
<g mask="url(#mask0_4651_26)">
<path fill-rule="evenodd" clip-rule="evenodd" d="M60.2727 136.412C59.1682 136.412 58.2727 135.516 58.2727 134.412V128.103L58.2727 18.7647C58.2727 17.6601 57.3773 16.7647 56.2727 16.7647L-56.4394 16.7647H-63C-64.1046 16.7647 -65 15.8693 -65 14.7647L-65 2.14706C-65 1.04249 -64.1046 0.147057 -63 0.147057H-56.4394L66.8333 0.147068C71.5612 0.147068 75.394 3.8671 75.394 8.45589L75.3939 128.103V134.412C75.3939 135.516 74.4985 136.412 73.3939 136.412L60.2727 136.412ZM15.1818 -63C16.2864 -63 17.1818 -62.1046 17.1818 -61V-54.6912L17.1818 54.6471C17.1818 55.7516 18.0773 56.6471 19.1818 56.6471L131.894 56.6471H138.455C139.559 56.6471 140.455 57.5425 140.455 58.6471V71.2647C140.455 72.3693 139.559 73.2647 138.455 73.2647H131.894H8.62122C3.89336 73.2647 0.0606155 69.5447 0.0606155 64.9559L0.0606232 -54.6912V-61C0.0606232 -62.1046 0.956055 -63 2.06062 -63L15.1818 -63Z" fill="#3B3B3B"/>
<path fill-rule="evenodd" clip-rule="evenodd" d="M60.2727 136.412C59.1682 136.412 58.2727 135.516 58.2727 134.412V128.103L58.2727 18.7647C58.2727 17.6601 57.3773 16.7647 56.2727 16.7647L-56.4394 16.7647H-63C-64.1046 16.7647 -65 15.8693 -65 14.7647L-65 2.14706C-65 1.04249 -64.1046 0.147057 -63 0.147057H-56.4394L66.8333 0.147068C71.5612 0.147068 75.394 3.8671 75.394 8.45589L75.3939 128.103V134.412C75.3939 135.516 74.4985 136.412 73.3939 136.412L60.2727 136.412ZM15.1818 -63C16.2864 -63 17.1818 -62.1046 17.1818 -61V-54.6912L17.1818 54.6471C17.1818 55.7516 18.0773 56.6471 19.1818 56.6471L131.894 56.6471H138.455C139.559 56.6471 140.455 57.5425 140.455 58.6471V71.2647C140.455 72.3693 139.559 73.2647 138.455 73.2647H131.894H8.62122C3.89336 73.2647 0.0606155 69.5447 0.0606155 64.9559L0.0606232 -54.6912V-61C0.0606232 -62.1046 0.956055 -63 2.06062 -63L15.1818 -63Z" fill="white"/>
</g>
</svg>