<svg width="100%" height="100%" viewBox="0 0 298 191" fill="none" xmlns="http://www.w3.org/2000/svg">
<g clip-path="url(#clip0_3261_1828)">
<rect width="298" height="191" fill="#171717"/>
<g filter="url(#filter0_b_3261_1828)">
<rect width="298" height="191" fill="#F4F3F1"/>
<g filter="url(#filter1_ddd_3261_1828)">
<g clip-path="url(#clip1_3261_1828)">
<rect x="127" y="73.5" width="44" height="44" rx="12" fill="white"/>
<g clip-path="url(#clip2_3261_1828)">
<mask id="mask0_3261_1828" style="mask-type:luminance" maskUnits="userSpaceOnUse" x="135" y="81" width="28" height="29">
<path d="M156 81.5H142C138.134 81.5 135 84.634 135 88.5V102.5C135 106.366 138.134 109.5 142 109.5H156C159.866 109.5 163 106.366 163 102.5V88.5C163 84.634 159.866 81.5 156 81.5Z" fill="white"/>
</mask>
<g mask="url(#mask0_3261_1828)">
<path d="M156 81.5H142C138.134 81.5 135 84.634 135 88.5V102.5C135 106.366 138.134 109.5 142 109.5H156C159.866 109.5 163 106.366 163 102.5V88.5C163 84.634 159.866 81.5 156 81.5Z" fill="white"/>
<path fill-rule="evenodd" clip-rule="evenodd" d="M142 81.5C142 80.9477 141.552 80.5 141 80.5C140.448 80.5 140 80.9477 140 81.5L135 81.5V86.5C134.448 86.5 134 86.9477 134 87.5C134 88.0523 134.448 88.5 135 88.5L135 109.5H156C156 110.052 156.448 110.5 157 110.5C157.552 110.5 158 110.052 158 109.5H163V104.5C163.552 104.5 164 104.052 164 103.5C164 102.948 163.552 102.5 163 102.5V81.5L142 81.5ZM142 81.5H140V86.5001L135 86.5C135 86.5 135 86.5 135 86.5L135 88.5L140 88.5001V103.5C140 104.052 140.448 104.5 141 104.5H156V109.5H158V104.5L163 104.5V102.5L158 102.5V87.5001C158 86.9478 157.552 86.5001 157 86.5001H142V81.5ZM142 102.5V88.5001H156V102.5H142Z" fill="#C5C5C5"/>
<g filter="url(#filter2_d_3261_1828)">
<path d="M156 88.5H142V102.5H156V88.5Z" fill="#5B5E66"/>
</g>
</g>
</g>
</g>
<rect x="127.25" y="73.75" width="43.5" height="43.5" rx="11.75" stroke="#171717" stroke-opacity="0.12" stroke-width="0.5"/>
</g>
</g>
<g filter="url(#filter3_bd_3261_1828)">
<rect x="133" y="79.5" width="32" height="32" rx="10" fill="white" fill-opacity="0.4"/>
<mask id="mask1_3261_1828" style="mask-type:luminance" maskUnits="userSpaceOnUse" x="135" y="81" width="28" height="29">
<path d="M156 81.5H142C138.134 81.5 135 84.634 135 88.5V102.5C135 106.366 138.134 109.5 142 109.5H156C159.866 109.5 163 106.366 163 102.5V88.5C163 84.634 159.866 81.5 156 81.5Z" fill="white"/>
</mask>
<g mask="url(#mask1_3261_1828)">
<path d="M156 81.5H142C138.134 81.5 135 84.634 135 88.5V102.5C135 106.366 138.134 109.5 142 109.5H156C159.866 109.5 163 106.366 163 102.5V88.5C163 84.634 159.866 81.5 156 81.5Z" fill="white"/>
<path fill-rule="evenodd" clip-rule="evenodd" d="M142 81.5C142 80.9477 141.552 80.5 141 80.5C140.448 80.5 140 80.9477 140 81.5L135 81.5V86.5C134.448 86.5 134 86.9477 134 87.5C134 88.0523 134.448 88.5 135 88.5L135 109.5H156C156 110.052 156.448 110.5 157 110.5C157.552 110.5 158 110.052 158 109.5H163V104.5C163.552 104.5 164 104.052 164 103.5C164 102.948 163.552 102.5 163 102.5V81.5L142 81.5ZM142 81.5H140V86.5001L135 86.5C135 86.5 135 86.5 135 86.5L135 88.5L140 88.5001V103.5C140 104.052 140.448 104.5 141 104.5H156V109.5H158V104.5L163 104.5V102.5L158 102.5V87.5001C158 86.9478 157.552 86.5001 157 86.5001H142V81.5ZM142 102.5V88.5001H156V102.5H142Z" fill="#C5C5C5"/>
<g filter="url(#filter4_d_3261_1828)">
<g filter="url(#filter5_ddd_3261_1828)">
<path d="M156 88.5H142V102.5H156V88.5Z" fill="#5B5E66"/>
</g>
</g>
</g>
</g>
</g>
<defs>
<filter id="filter0_b_3261_1828" x="-100" y="-100" width="498" height="391" filterUnits="userSpaceOnUse" color-interpolation-filters="sRGB">
<feFlood flood-opacity="0" result="BackgroundImageFix"/>
<feGaussianBlur in="BackgroundImageFix" stdDeviation="50"/>
<feComposite in2="SourceAlpha" operator="in" result="effect1_backgroundBlur_3261_1828"/>
<feBlend mode="normal" in="SourceGraphic" in2="effect1_backgroundBlur_3261_1828" result="shape"/>
</filter>
<filter id="filter1_ddd_3261_1828" x="119" y="69.5" width="60" height="60" filterUnits="userSpaceOnUse" color-interpolation-filters="sRGB">
<feFlood flood-opacity="0" result="BackgroundImageFix"/>
<feColorMatrix in="SourceAlpha" type="matrix" values="0 0 0 0 0 0 0 0 0 0 0 0 0 0 0 0 0 0 127 0" result="hardAlpha"/>
<feOffset dy="1"/>
<feGaussianBlur stdDeviation="1"/>
<feComposite in2="hardAlpha" operator="out"/>
<feColorMatrix type="matrix" values="0 0 0 0 0 0 0 0 0 0 0 0 0 0 0 0 0 0 0.12 0"/>
<feBlend mode="normal" in2="BackgroundImageFix" result="effect1_dropShadow_3261_1828"/>
<feColorMatrix in="SourceAlpha" type="matrix" values="0 0 0 0 0 0 0 0 0 0 0 0 0 0 0 0 0 0 127 0" result="hardAlpha"/>
<feOffset/>
<feGaussianBlur stdDeviation="2"/>
<feComposite in2="hardAlpha" operator="out"/>
<feColorMatrix type="matrix" values="0 0 0 0 0 0 0 0 0 0 0 0 0 0 0 0 0 0 0.04 0"/>
<feBlend mode="normal" in2="effect1_dropShadow_3261_1828" result="effect2_dropShadow_3261_1828"/>
<feColorMatrix in="SourceAlpha" type="matrix" values="0 0 0 0 0 0 0 0 0 0 0 0 0 0 0 0 0 0 127 0" result="hardAlpha"/>
<feOffset dy="4"/>
<feGaussianBlur stdDeviation="4"/>
<feComposite in2="hardAlpha" operator="out"/>
<feColorMatrix type="matrix" values="0 0 0 0 0 0 0 0 0 0 0 0 0 0 0 0 0 0 0.08 0"/>
<feBlend mode="normal" in2="effect2_dropShadow_3261_1828" result="effect3_dropShadow_3261_1828"/>
<feBlend mode="normal" in="SourceGraphic" in2="effect3_dropShadow_3261_1828" result="shape"/>
</filter>
<filter id="filter2_d_3261_1828" x="138" y="88.5" width="22" height="22" filterUnits="userSpaceOnUse" color-interpolation-filters="sRGB">
<feFlood flood-opacity="0" result="BackgroundImageFix"/>
<feColorMatrix in="SourceAlpha" type="matrix" values="0 0 0 0 0 0 0 0 0 0 0 0 0 0 0 0 0 0 127 0" result="hardAlpha"/>
<feOffset dy="4"/>
<feGaussianBlur stdDeviation="2"/>
<feComposite in2="hardAlpha" operator="out"/>
<feColorMatrix type="matrix" values="0 0 0 0 0 0 0 0 0 0 0 0 0 0 0 0 0 0 0.18 0"/>
<feBlend mode="normal" in2="BackgroundImageFix" result="effect1_dropShadow_3261_1828"/>
<feBlend mode="normal" in="SourceGraphic" in2="effect1_dropShadow_3261_1828" result="shape"/>
</filter>
<filter id="filter3_bd_3261_1828" x="129.652" y="78.5" width="38.6968" height="47.4728" filterUnits="userSpaceOnUse" color-interpolation-filters="sRGB">
<feFlood flood-opacity="0" result="BackgroundImageFix"/>
<feGaussianBlur in="BackgroundImageFix" stdDeviation="0.5"/>
<feComposite in2="SourceAlpha" operator="in" result="effect1_backgroundBlur_3261_1828"/>
<feColorMatrix in="SourceAlpha" type="matrix" values="0 0 0 0 0 0 0 0 0 0 0 0 0 0 0 0 0 0 127 0" result="hardAlpha"/>
<feOffset dy="11.1244"/>
<feGaussianBlur stdDeviation="1.67419"/>
<feColorMatrix type="matrix" values="0 0 0 0 0.573684 0 0 0 0 0.573684 0 0 0 0 0.573684 0 0 0 0.126516 0"/>
<feBlend mode="normal" in2="effect1_backgroundBlur_3261_1828" result="effect2_dropShadow_3261_1828"/>
<feBlend mode="normal" in="SourceGraphic" in2="effect2_dropShadow_3261_1828" result="shape"/>
</filter>
<filter id="filter4_d_3261_1828" x="138" y="88.5" width="22" height="22" filterUnits="userSpaceOnUse" color-interpolation-filters="sRGB">
<feFlood flood-opacity="0" result="BackgroundImageFix"/>
<feColorMatrix in="SourceAlpha" type="matrix" values="0 0 0 0 0 0 0 0 0 0 0 0 0 0 0 0 0 0 127 0" result="hardAlpha"/>
<feOffset dy="4"/>
<feGaussianBlur stdDeviation="2"/>
<feComposite in2="hardAlpha" operator="out"/>
<feColorMatrix type="matrix" values="0 0 0 0 0 0 0 0 0 0 0 0 0 0 0 0 0 0 0.18 0"/>
<feBlend mode="normal" in2="BackgroundImageFix" result="effect1_dropShadow_3261_1828"/>
<feBlend mode="normal" in="SourceGraphic" in2="effect1_dropShadow_3261_1828" result="shape"/>
</filter>
<filter id="filter5_ddd_3261_1828" x="110" y="72.5" width="78" height="78" filterUnits="userSpaceOnUse" color-interpolation-filters="sRGB">
<feFlood flood-opacity="0" result="BackgroundImageFix"/>
<feColorMatrix in="SourceAlpha" type="matrix" values="0 0 0 0 0 0 0 0 0 0 0 0 0 0 0 0 0 0 127 0" result="hardAlpha"/>
<feOffset dy="16"/>
<feGaussianBlur stdDeviation="16"/>
<feComposite in2="hardAlpha" operator="out"/>
<feColorMatrix type="matrix" values="0 0 0 0 0 0 0 0 0 0 0 0 0 0 0 0 0 0 0.12 0"/>
<feBlend mode="normal" in2="BackgroundImageFix" result="effect1_dropShadow_3261_1828"/>
<feColorMatrix in="SourceAlpha" type="matrix" values="0 0 0 0 0 0 0 0 0 0 0 0 0 0 0 0 0 0 127 0" result="hardAlpha"/>
<feOffset dy="16"/>
<feGaussianBlur stdDeviation="12"/>
<feComposite in2="hardAlpha" operator="out"/>
<feColorMatrix type="matrix" values="0 0 0 0 0 0 0 0 0 0 0 0 0 0 0 0 0 0 0.12 0"/>
<feBlend mode="normal" in2="effect1_dropShadow_3261_1828" result="effect2_dropShadow_3261_1828"/>
<feColorMatrix in="SourceAlpha" type="matrix" values="0 0 0 0 0 0 0 0 0 0 0 0 0 0 0 0 0 0 127 0" result="hardAlpha"/>
<feOffset dy="4"/>
<feGaussianBlur stdDeviation="4"/>
<feComposite in2="hardAlpha" operator="out"/>
<feColorMatrix type="matrix" values="0 0 0 0 0 0 0 0 0 0 0 0 0 0 0 0 0 0 0.12 0"/>
<feBlend mode="normal" in2="effect2_dropShadow_3261_1828" result="effect3_dropShadow_3261_1828"/>
<feBlend mode="normal" in="SourceGraphic" in2="effect3_dropShadow_3261_1828" result="shape"/>
</filter>
<clipPath id="clip0_3261_1828">
<rect width="298" height="191" fill="white"/>
</clipPath>
<clipPath id="clip1_3261_1828">
<rect x="127" y="73.5" width="44" height="44" rx="12" fill="white"/>
</clipPath>
<clipPath id="clip2_3261_1828">
<rect width="28" height="28" fill="white" transform="translate(135 81.5)"/>
</clipPath>
</defs>
</svg>
